<mxfile host="app.diagrams.net" agent="Mozilla/5.0 (Windows NT 10.0; Win64; x64) AppleWebKit/537.36 (KHTML, like Gecko) Chrome/133.0.0.0 Safari/537.36 Edg/133.0.0.0" version="26.0.16">
  <diagram name="PÃ¡gina-1" id="yP0Ue-lNkuzbIZUD3Ud7">
    <mxGraphModel dx="872" dy="477" grid="1" gridSize="10" guides="1" tooltips="1" connect="1" arrows="1" fold="1" page="1" pageScale="1" pageWidth="827" pageHeight="1169" math="0" shadow="0">
      <root>
        <mxCell id="0" />
        <mxCell id="1" parent="0" />
        <mxCell id="0Q15iBgOFEZU8QvkFg-S-7" style="edgeStyle=orthogonalEdgeStyle;rounded=0;orthogonalLoop=1;jettySize=auto;html=1;exitX=1;exitY=0.5;exitDx=0;exitDy=0;entryX=0;entryY=0.5;entryDx=0;entryDy=0;endArrow=none;startFill=0;fillColor=#f8cecc;strokeColor=#b85450;" parent="1" source="0Q15iBgOFEZU8QvkFg-S-1" target="0Q15iBgOFEZU8QvkFg-S-4" edge="1">
          <mxGeometry relative="1" as="geometry" />
        </mxCell>
        <mxCell id="0Q15iBgOFEZU8QvkFg-S-1" value="Departamento" style="whiteSpace=wrap;html=1;align=center;fillColor=#f8cecc;strokeColor=#b85450;" parent="1" vertex="1">
          <mxGeometry x="120" y="350" width="100" height="40" as="geometry" />
        </mxCell>
        <mxCell id="0Q15iBgOFEZU8QvkFg-S-9" style="edgeStyle=orthogonalEdgeStyle;rounded=0;orthogonalLoop=1;jettySize=auto;html=1;exitX=0.5;exitY=1;exitDx=0;exitDy=0;entryX=0.5;entryY=0;entryDx=0;entryDy=0;endArrow=none;startFill=0;fillColor=#f8cecc;strokeColor=#b85450;" parent="1" source="0Q15iBgOFEZU8QvkFg-S-3" target="0Q15iBgOFEZU8QvkFg-S-5" edge="1">
          <mxGeometry relative="1" as="geometry" />
        </mxCell>
        <mxCell id="0Q15iBgOFEZU8QvkFg-S-3" value="Funcionario" style="whiteSpace=wrap;html=1;align=center;fillColor=#f8cecc;strokeColor=#b85450;" parent="1" vertex="1">
          <mxGeometry x="470" y="350" width="100" height="40" as="geometry" />
        </mxCell>
        <mxCell id="0Q15iBgOFEZU8QvkFg-S-8" style="edgeStyle=orthogonalEdgeStyle;rounded=0;orthogonalLoop=1;jettySize=auto;html=1;entryX=0;entryY=0.5;entryDx=0;entryDy=0;endArrow=none;startFill=0;fillColor=#f8cecc;strokeColor=#b85450;" parent="1" source="0Q15iBgOFEZU8QvkFg-S-4" target="0Q15iBgOFEZU8QvkFg-S-3" edge="1">
          <mxGeometry relative="1" as="geometry" />
        </mxCell>
        <mxCell id="0Q15iBgOFEZU8QvkFg-S-4" value="alocado" style="shape=rhombus;perimeter=rhombusPerimeter;whiteSpace=wrap;html=1;align=center;fillColor=#f8cecc;strokeColor=#b85450;" parent="1" vertex="1">
          <mxGeometry x="290" y="340" width="120" height="60" as="geometry" />
        </mxCell>
        <mxCell id="0Q15iBgOFEZU8QvkFg-S-10" style="edgeStyle=orthogonalEdgeStyle;rounded=0;orthogonalLoop=1;jettySize=auto;html=1;exitX=0;exitY=0.5;exitDx=0;exitDy=0;entryX=1;entryY=0.5;entryDx=0;entryDy=0;endArrow=none;startFill=0;fillColor=#f8cecc;strokeColor=#b85450;" parent="1" source="0Q15iBgOFEZU8QvkFg-S-5" target="0Q15iBgOFEZU8QvkFg-S-6" edge="1">
          <mxGeometry relative="1" as="geometry" />
        </mxCell>
        <mxCell id="0Q15iBgOFEZU8QvkFg-S-5" value="possui" style="shape=rhombus;perimeter=rhombusPerimeter;whiteSpace=wrap;html=1;align=center;fillColor=#f8cecc;strokeColor=#b85450;" parent="1" vertex="1">
          <mxGeometry x="460" y="430" width="120" height="60" as="geometry" />
        </mxCell>
        <mxCell id="0Q15iBgOFEZU8QvkFg-S-6" value="Cargo" style="whiteSpace=wrap;html=1;align=center;fillColor=#f8cecc;strokeColor=#b85450;" parent="1" vertex="1">
          <mxGeometry x="250" y="440" width="100" height="40" as="geometry" />
        </mxCell>
        <mxCell id="0Q15iBgOFEZU8QvkFg-S-19" style="edgeStyle=orthogonalEdgeStyle;rounded=0;orthogonalLoop=1;jettySize=auto;html=1;exitX=1;exitY=0.5;exitDx=0;exitDy=0;entryX=0;entryY=0.5;entryDx=0;entryDy=0;endArrow=none;startFill=0;fillColor=#f8cecc;strokeColor=#b85450;" parent="1" source="0Q15iBgOFEZU8QvkFg-S-11" target="0Q15iBgOFEZU8QvkFg-S-13" edge="1">
          <mxGeometry relative="1" as="geometry" />
        </mxCell>
        <mxCell id="0Q15iBgOFEZU8QvkFg-S-22" style="edgeStyle=orthogonalEdgeStyle;rounded=0;orthogonalLoop=1;jettySize=auto;html=1;endArrow=none;startFill=0;fillColor=#f8cecc;strokeColor=#b85450;" parent="1" source="0Q15iBgOFEZU8QvkFg-S-11" target="0Q15iBgOFEZU8QvkFg-S-15" edge="1">
          <mxGeometry relative="1" as="geometry" />
        </mxCell>
        <mxCell id="0Q15iBgOFEZU8QvkFg-S-11" value="Medico" style="whiteSpace=wrap;html=1;align=center;fillColor=#f8cecc;strokeColor=#b85450;" parent="1" vertex="1">
          <mxGeometry x="120" y="600" width="100" height="40" as="geometry" />
        </mxCell>
        <mxCell id="0Q15iBgOFEZU8QvkFg-S-20" style="edgeStyle=orthogonalEdgeStyle;rounded=0;orthogonalLoop=1;jettySize=auto;html=1;entryX=0;entryY=0.5;entryDx=0;entryDy=0;endArrow=none;startFill=0;fillColor=#f8cecc;strokeColor=#b85450;" parent="1" source="0Q15iBgOFEZU8QvkFg-S-13" target="0Q15iBgOFEZU8QvkFg-S-14" edge="1">
          <mxGeometry relative="1" as="geometry" />
        </mxCell>
        <mxCell id="0Q15iBgOFEZU8QvkFg-S-13" value="possui" style="shape=rhombus;perimeter=rhombusPerimeter;whiteSpace=wrap;html=1;align=center;fillColor=#f8cecc;strokeColor=#b85450;" parent="1" vertex="1">
          <mxGeometry x="290" y="590" width="120" height="60" as="geometry" />
        </mxCell>
        <mxCell id="0Q15iBgOFEZU8QvkFg-S-14" value="Especialidade" style="whiteSpace=wrap;html=1;align=center;fillColor=#f8cecc;strokeColor=#b85450;" parent="1" vertex="1">
          <mxGeometry x="470" y="600" width="100" height="40" as="geometry" />
        </mxCell>
        <mxCell id="0Q15iBgOFEZU8QvkFg-S-23" style="edgeStyle=orthogonalEdgeStyle;rounded=0;orthogonalLoop=1;jettySize=auto;html=1;endArrow=none;startFill=0;fillColor=#f8cecc;strokeColor=#b85450;" parent="1" source="0Q15iBgOFEZU8QvkFg-S-15" target="0Q15iBgOFEZU8QvkFg-S-16" edge="1">
          <mxGeometry relative="1" as="geometry" />
        </mxCell>
        <mxCell id="0Q15iBgOFEZU8QvkFg-S-15" value="Encaixa" style="shape=rhombus;perimeter=rhombusPerimeter;whiteSpace=wrap;html=1;align=center;fillColor=#f8cecc;strokeColor=#b85450;" parent="1" vertex="1">
          <mxGeometry x="110" y="680" width="120" height="60" as="geometry" />
        </mxCell>
        <mxCell id="0Q15iBgOFEZU8QvkFg-S-24" style="edgeStyle=orthogonalEdgeStyle;rounded=0;orthogonalLoop=1;jettySize=auto;html=1;entryX=0;entryY=0.5;entryDx=0;entryDy=0;endArrow=none;startFill=0;fillColor=#f8cecc;strokeColor=#b85450;" parent="1" source="0Q15iBgOFEZU8QvkFg-S-16" target="0Q15iBgOFEZU8QvkFg-S-18" edge="1">
          <mxGeometry relative="1" as="geometry" />
        </mxCell>
        <mxCell id="0Q15iBgOFEZU8QvkFg-S-16" value="Agenda" style="whiteSpace=wrap;html=1;align=center;fillColor=#f8cecc;strokeColor=#b85450;" parent="1" vertex="1">
          <mxGeometry x="120" y="770" width="100" height="40" as="geometry" />
        </mxCell>
        <mxCell id="0Q15iBgOFEZU8QvkFg-S-26" style="edgeStyle=orthogonalEdgeStyle;rounded=0;orthogonalLoop=1;jettySize=auto;html=1;entryX=0;entryY=0.5;entryDx=0;entryDy=0;endArrow=none;startFill=0;fillColor=#f8cecc;strokeColor=#b85450;" parent="1" source="0Q15iBgOFEZU8QvkFg-S-18" target="0Q15iBgOFEZU8QvkFg-S-25" edge="1">
          <mxGeometry relative="1" as="geometry" />
        </mxCell>
        <mxCell id="0Q15iBgOFEZU8QvkFg-S-18" value="Atende" style="shape=rhombus;perimeter=rhombusPerimeter;whiteSpace=wrap;html=1;align=center;fillColor=#f8cecc;strokeColor=#b85450;" parent="1" vertex="1">
          <mxGeometry x="294" y="760" width="120" height="60" as="geometry" />
        </mxCell>
        <mxCell id="0Q15iBgOFEZU8QvkFg-S-25" value="Paciente" style="whiteSpace=wrap;html=1;align=center;fillColor=#f8cecc;strokeColor=#b85450;" parent="1" vertex="1">
          <mxGeometry x="480" y="770" width="100" height="40" as="geometry" />
        </mxCell>
        <mxCell id="7WFEa3xVSwvYBAht9R95-11" style="edgeStyle=orthogonalEdgeStyle;rounded=0;orthogonalLoop=1;jettySize=auto;html=1;entryX=0;entryY=0.5;entryDx=0;entryDy=0;endArrow=none;startFill=0;fillColor=#f8cecc;strokeColor=#b85450;" edge="1" parent="1" source="7WFEa3xVSwvYBAht9R95-1" target="7WFEa3xVSwvYBAht9R95-3">
          <mxGeometry relative="1" as="geometry" />
        </mxCell>
        <mxCell id="7WFEa3xVSwvYBAht9R95-1" value="Escola" style="whiteSpace=wrap;html=1;align=center;fillColor=#f8cecc;strokeColor=#b85450;" vertex="1" parent="1">
          <mxGeometry x="120" y="920" width="100" height="40" as="geometry" />
        </mxCell>
        <mxCell id="7WFEa3xVSwvYBAht9R95-12" style="edgeStyle=orthogonalEdgeStyle;rounded=0;orthogonalLoop=1;jettySize=auto;html=1;endArrow=none;startFill=0;fillColor=#f8cecc;strokeColor=#b85450;" edge="1" parent="1" source="7WFEa3xVSwvYBAht9R95-3" target="7WFEa3xVSwvYBAht9R95-4">
          <mxGeometry relative="1" as="geometry" />
        </mxCell>
        <mxCell id="7WFEa3xVSwvYBAht9R95-3" value="oferece" style="shape=rhombus;perimeter=rhombusPerimeter;whiteSpace=wrap;html=1;align=center;fillColor=#f8cecc;strokeColor=#b85450;" vertex="1" parent="1">
          <mxGeometry x="294" y="910" width="120" height="60" as="geometry" />
        </mxCell>
        <mxCell id="7WFEa3xVSwvYBAht9R95-13" style="edgeStyle=orthogonalEdgeStyle;rounded=0;orthogonalLoop=1;jettySize=auto;html=1;entryX=0.5;entryY=0;entryDx=0;entryDy=0;endArrow=none;startFill=0;fillColor=#f8cecc;strokeColor=#b85450;" edge="1" parent="1" source="7WFEa3xVSwvYBAht9R95-4" target="7WFEa3xVSwvYBAht9R95-5">
          <mxGeometry relative="1" as="geometry" />
        </mxCell>
        <mxCell id="7WFEa3xVSwvYBAht9R95-4" value="Cursos" style="whiteSpace=wrap;html=1;align=center;fillColor=#f8cecc;strokeColor=#b85450;" vertex="1" parent="1">
          <mxGeometry x="480" y="920" width="100" height="40" as="geometry" />
        </mxCell>
        <mxCell id="7WFEa3xVSwvYBAht9R95-14" style="edgeStyle=orthogonalEdgeStyle;rounded=0;orthogonalLoop=1;jettySize=auto;html=1;entryX=0.5;entryY=0;entryDx=0;entryDy=0;endArrow=none;startFill=0;fillColor=#f8cecc;strokeColor=#b85450;" edge="1" parent="1" source="7WFEa3xVSwvYBAht9R95-5" target="7WFEa3xVSwvYBAht9R95-6">
          <mxGeometry relative="1" as="geometry" />
        </mxCell>
        <mxCell id="7WFEa3xVSwvYBAht9R95-5" value="Possui" style="shape=rhombus;perimeter=rhombusPerimeter;whiteSpace=wrap;html=1;align=center;fillColor=#f8cecc;strokeColor=#b85450;" vertex="1" parent="1">
          <mxGeometry x="470" y="1000" width="120" height="60" as="geometry" />
        </mxCell>
        <mxCell id="7WFEa3xVSwvYBAht9R95-15" style="edgeStyle=orthogonalEdgeStyle;rounded=0;orthogonalLoop=1;jettySize=auto;html=1;entryX=1;entryY=0.5;entryDx=0;entryDy=0;endArrow=none;startFill=0;fillColor=#f8cecc;strokeColor=#b85450;" edge="1" parent="1" source="7WFEa3xVSwvYBAht9R95-6" target="7WFEa3xVSwvYBAht9R95-7">
          <mxGeometry relative="1" as="geometry">
            <mxPoint x="420" y="1110" as="targetPoint" />
          </mxGeometry>
        </mxCell>
        <mxCell id="7WFEa3xVSwvYBAht9R95-6" value="Diciplinas" style="whiteSpace=wrap;html=1;align=center;fillColor=#f8cecc;strokeColor=#b85450;" vertex="1" parent="1">
          <mxGeometry x="480" y="1090" width="100" height="40" as="geometry" />
        </mxCell>
        <mxCell id="7WFEa3xVSwvYBAht9R95-16" style="edgeStyle=orthogonalEdgeStyle;rounded=0;orthogonalLoop=1;jettySize=auto;html=1;entryX=1;entryY=0.5;entryDx=0;entryDy=0;endArrow=none;startFill=0;fillColor=#f8cecc;strokeColor=#b85450;" edge="1" parent="1" source="7WFEa3xVSwvYBAht9R95-7" target="7WFEa3xVSwvYBAht9R95-8">
          <mxGeometry relative="1" as="geometry" />
        </mxCell>
        <mxCell id="7WFEa3xVSwvYBAht9R95-7" value="possuem" style="shape=rhombus;perimeter=rhombusPerimeter;whiteSpace=wrap;html=1;align=center;fillColor=#f8cecc;strokeColor=#b85450;" vertex="1" parent="1">
          <mxGeometry x="294" y="1080" width="120" height="60" as="geometry" />
        </mxCell>
        <mxCell id="7WFEa3xVSwvYBAht9R95-17" style="edgeStyle=orthogonalEdgeStyle;rounded=0;orthogonalLoop=1;jettySize=auto;html=1;entryX=0.5;entryY=0;entryDx=0;entryDy=0;endArrow=none;startFill=0;fillColor=#f8cecc;strokeColor=#b85450;" edge="1" parent="1" source="7WFEa3xVSwvYBAht9R95-8" target="7WFEa3xVSwvYBAht9R95-9">
          <mxGeometry relative="1" as="geometry" />
        </mxCell>
        <mxCell id="7WFEa3xVSwvYBAht9R95-8" value="Professores" style="whiteSpace=wrap;html=1;align=center;fillColor=#f8cecc;strokeColor=#b85450;" vertex="1" parent="1">
          <mxGeometry x="120" y="1090" width="100" height="40" as="geometry" />
        </mxCell>
        <mxCell id="7WFEa3xVSwvYBAht9R95-18" style="edgeStyle=orthogonalEdgeStyle;rounded=0;orthogonalLoop=1;jettySize=auto;html=1;endArrow=none;startFill=0;fillColor=#f8cecc;strokeColor=#b85450;" edge="1" parent="1" source="7WFEa3xVSwvYBAht9R95-9" target="7WFEa3xVSwvYBAht9R95-10">
          <mxGeometry relative="1" as="geometry" />
        </mxCell>
        <mxCell id="7WFEa3xVSwvYBAht9R95-9" value="ministram" style="shape=rhombus;perimeter=rhombusPerimeter;whiteSpace=wrap;html=1;align=center;fillColor=#f8cecc;strokeColor=#b85450;" vertex="1" parent="1">
          <mxGeometry x="110" y="1169" width="120" height="60" as="geometry" />
        </mxCell>
        <mxCell id="7WFEa3xVSwvYBAht9R95-10" value="Aulas" style="whiteSpace=wrap;html=1;align=center;fillColor=#f8cecc;strokeColor=#b85450;" vertex="1" parent="1">
          <mxGeometry x="120" y="1260" width="100" height="40" as="geometry" />
        </mxCell>
        <mxCell id="7WFEa3xVSwvYBAht9R95-33" style="edgeStyle=orthogonalEdgeStyle;rounded=0;orthogonalLoop=1;jettySize=auto;html=1;entryX=0;entryY=0.5;entryDx=0;entryDy=0;endArrow=none;startFill=0;fillColor=#f8cecc;strokeColor=#b85450;" edge="1" parent="1" source="7WFEa3xVSwvYBAht9R95-19" target="7WFEa3xVSwvYBAht9R95-21">
          <mxGeometry relative="1" as="geometry" />
        </mxCell>
        <mxCell id="7WFEa3xVSwvYBAht9R95-19" value="Cliente&amp;nbsp;" style="whiteSpace=wrap;html=1;align=center;fillColor=#f8cecc;strokeColor=#b85450;" vertex="1" parent="1">
          <mxGeometry x="130" y="1480" width="100" height="40" as="geometry" />
        </mxCell>
        <mxCell id="7WFEa3xVSwvYBAht9R95-34" style="edgeStyle=orthogonalEdgeStyle;rounded=0;orthogonalLoop=1;jettySize=auto;html=1;entryX=0;entryY=0.5;entryDx=0;entryDy=0;endArrow=none;startFill=0;fillColor=#f8cecc;strokeColor=#b85450;" edge="1" parent="1" source="7WFEa3xVSwvYBAht9R95-21" target="7WFEa3xVSwvYBAht9R95-22">
          <mxGeometry relative="1" as="geometry" />
        </mxCell>
        <mxCell id="7WFEa3xVSwvYBAht9R95-21" value="possui" style="shape=rhombus;perimeter=rhombusPerimeter;whiteSpace=wrap;html=1;align=center;fillColor=#f8cecc;strokeColor=#b85450;" vertex="1" parent="1">
          <mxGeometry x="280" y="1470" width="120" height="60" as="geometry" />
        </mxCell>
        <mxCell id="7WFEa3xVSwvYBAht9R95-35" style="edgeStyle=orthogonalEdgeStyle;rounded=0;orthogonalLoop=1;jettySize=auto;html=1;entryX=0.5;entryY=0;entryDx=0;entryDy=0;endArrow=none;startFill=0;fillColor=#f8cecc;strokeColor=#b85450;" edge="1" parent="1" source="7WFEa3xVSwvYBAht9R95-22" target="7WFEa3xVSwvYBAht9R95-23">
          <mxGeometry relative="1" as="geometry" />
        </mxCell>
        <mxCell id="7WFEa3xVSwvYBAht9R95-22" value="Equipamento" style="whiteSpace=wrap;html=1;align=center;fillColor=#f8cecc;strokeColor=#b85450;" vertex="1" parent="1">
          <mxGeometry x="440" y="1480" width="100" height="40" as="geometry" />
        </mxCell>
        <mxCell id="7WFEa3xVSwvYBAht9R95-36" style="edgeStyle=orthogonalEdgeStyle;rounded=0;orthogonalLoop=1;jettySize=auto;html=1;exitX=0.5;exitY=1;exitDx=0;exitDy=0;entryX=0.5;entryY=0;entryDx=0;entryDy=0;endArrow=none;startFill=0;fillColor=#f8cecc;strokeColor=#b85450;" edge="1" parent="1" source="7WFEa3xVSwvYBAht9R95-23" target="7WFEa3xVSwvYBAht9R95-24">
          <mxGeometry relative="1" as="geometry" />
        </mxCell>
        <mxCell id="7WFEa3xVSwvYBAht9R95-23" value="leva" style="shape=rhombus;perimeter=rhombusPerimeter;whiteSpace=wrap;html=1;align=center;fillColor=#f8cecc;strokeColor=#b85450;" vertex="1" parent="1">
          <mxGeometry x="430" y="1560" width="120" height="60" as="geometry" />
        </mxCell>
        <mxCell id="7WFEa3xVSwvYBAht9R95-37" style="edgeStyle=orthogonalEdgeStyle;rounded=0;orthogonalLoop=1;jettySize=auto;html=1;entryX=1;entryY=0.5;entryDx=0;entryDy=0;endArrow=none;startFill=0;fillColor=#f8cecc;strokeColor=#b85450;" edge="1" parent="1" source="7WFEa3xVSwvYBAht9R95-24" target="7WFEa3xVSwvYBAht9R95-25">
          <mxGeometry relative="1" as="geometry" />
        </mxCell>
        <mxCell id="7WFEa3xVSwvYBAht9R95-24" value="FuncionÃ¡rio" style="whiteSpace=wrap;html=1;align=center;fillColor=#f8cecc;strokeColor=#b85450;" vertex="1" parent="1">
          <mxGeometry x="440" y="1650" width="100" height="40" as="geometry" />
        </mxCell>
        <mxCell id="7WFEa3xVSwvYBAht9R95-38" style="edgeStyle=orthogonalEdgeStyle;rounded=0;orthogonalLoop=1;jettySize=auto;html=1;entryX=1;entryY=0.5;entryDx=0;entryDy=0;endArrow=none;startFill=0;fillColor=#f8cecc;strokeColor=#b85450;" edge="1" parent="1" source="7WFEa3xVSwvYBAht9R95-25" target="7WFEa3xVSwvYBAht9R95-26">
          <mxGeometry relative="1" as="geometry" />
        </mxCell>
        <mxCell id="7WFEa3xVSwvYBAht9R95-25" value="aval" style="shape=rhombus;perimeter=rhombusPerimeter;whiteSpace=wrap;html=1;align=center;fillColor=#f8cecc;strokeColor=#b85450;" vertex="1" parent="1">
          <mxGeometry x="280" y="1640" width="120" height="60" as="geometry" />
        </mxCell>
        <mxCell id="7WFEa3xVSwvYBAht9R95-39" style="edgeStyle=orthogonalEdgeStyle;rounded=0;orthogonalLoop=1;jettySize=auto;html=1;endArrow=none;startFill=0;fillColor=#f8cecc;strokeColor=#b85450;" edge="1" parent="1" source="7WFEa3xVSwvYBAht9R95-26" target="7WFEa3xVSwvYBAht9R95-27">
          <mxGeometry relative="1" as="geometry" />
        </mxCell>
        <mxCell id="7WFEa3xVSwvYBAht9R95-26" value="Defeito" style="whiteSpace=wrap;html=1;align=center;fillColor=#f8cecc;strokeColor=#b85450;" vertex="1" parent="1">
          <mxGeometry x="130" y="1650" width="100" height="40" as="geometry" />
        </mxCell>
        <mxCell id="7WFEa3xVSwvYBAht9R95-40" style="edgeStyle=orthogonalEdgeStyle;rounded=0;orthogonalLoop=1;jettySize=auto;html=1;exitX=0.5;exitY=1;exitDx=0;exitDy=0;endArrow=none;startFill=0;fillColor=#f8cecc;strokeColor=#b85450;" edge="1" parent="1" source="7WFEa3xVSwvYBAht9R95-27" target="7WFEa3xVSwvYBAht9R95-28">
          <mxGeometry relative="1" as="geometry" />
        </mxCell>
        <mxCell id="7WFEa3xVSwvYBAht9R95-27" value="realiza" style="shape=rhombus;perimeter=rhombusPerimeter;whiteSpace=wrap;html=1;align=center;fillColor=#f8cecc;strokeColor=#b85450;" vertex="1" parent="1">
          <mxGeometry x="120" y="1730" width="120" height="60" as="geometry" />
        </mxCell>
        <mxCell id="7WFEa3xVSwvYBAht9R95-41" style="edgeStyle=orthogonalEdgeStyle;rounded=0;orthogonalLoop=1;jettySize=auto;html=1;entryX=0;entryY=0.5;entryDx=0;entryDy=0;endArrow=none;startFill=0;fillColor=#f8cecc;strokeColor=#b85450;" edge="1" parent="1" source="7WFEa3xVSwvYBAht9R95-28" target="7WFEa3xVSwvYBAht9R95-29">
          <mxGeometry relative="1" as="geometry" />
        </mxCell>
        <mxCell id="7WFEa3xVSwvYBAht9R95-28" value="OrÃ§amento" style="whiteSpace=wrap;html=1;align=center;fillColor=#f8cecc;strokeColor=#b85450;" vertex="1" parent="1">
          <mxGeometry x="130" y="1840" width="100" height="40" as="geometry" />
        </mxCell>
        <mxCell id="7WFEa3xVSwvYBAht9R95-42" style="edgeStyle=orthogonalEdgeStyle;rounded=0;orthogonalLoop=1;jettySize=auto;html=1;entryX=0;entryY=0.5;entryDx=0;entryDy=0;endArrow=none;startFill=0;fillColor=#f8cecc;strokeColor=#b85450;" edge="1" parent="1" source="7WFEa3xVSwvYBAht9R95-29" target="7WFEa3xVSwvYBAht9R95-30">
          <mxGeometry relative="1" as="geometry" />
        </mxCell>
        <mxCell id="7WFEa3xVSwvYBAht9R95-29" value="solicita" style="shape=rhombus;perimeter=rhombusPerimeter;whiteSpace=wrap;html=1;align=center;fillColor=#f8cecc;strokeColor=#b85450;" vertex="1" parent="1">
          <mxGeometry x="280" y="1830" width="120" height="60" as="geometry" />
        </mxCell>
        <mxCell id="7WFEa3xVSwvYBAht9R95-44" style="edgeStyle=orthogonalEdgeStyle;rounded=0;orthogonalLoop=1;jettySize=auto;html=1;entryX=0.5;entryY=0;entryDx=0;entryDy=0;endArrow=none;startFill=0;fillColor=#f8cecc;strokeColor=#b85450;" edge="1" parent="1" source="7WFEa3xVSwvYBAht9R95-30" target="7WFEa3xVSwvYBAht9R95-31">
          <mxGeometry relative="1" as="geometry" />
        </mxCell>
        <mxCell id="7WFEa3xVSwvYBAht9R95-30" value="PeÃ§as" style="whiteSpace=wrap;html=1;align=center;fillColor=#f8cecc;strokeColor=#b85450;" vertex="1" parent="1">
          <mxGeometry x="440" y="1840" width="100" height="40" as="geometry" />
        </mxCell>
        <mxCell id="7WFEa3xVSwvYBAht9R95-45" style="edgeStyle=orthogonalEdgeStyle;rounded=0;orthogonalLoop=1;jettySize=auto;html=1;entryX=0.5;entryY=0;entryDx=0;entryDy=0;endArrow=none;startFill=0;fillColor=#f8cecc;strokeColor=#b85450;" edge="1" parent="1" source="7WFEa3xVSwvYBAht9R95-31" target="7WFEa3xVSwvYBAht9R95-32">
          <mxGeometry relative="1" as="geometry" />
        </mxCell>
        <mxCell id="7WFEa3xVSwvYBAht9R95-31" value="realiza" style="shape=rhombus;perimeter=rhombusPerimeter;whiteSpace=wrap;html=1;align=center;fillColor=#f8cecc;strokeColor=#b85450;" vertex="1" parent="1">
          <mxGeometry x="430" y="1920" width="120" height="60" as="geometry" />
        </mxCell>
        <mxCell id="7WFEa3xVSwvYBAht9R95-32" value="SeviÃ§o" style="whiteSpace=wrap;html=1;align=center;fillColor=#f8cecc;strokeColor=#b85450;" vertex="1" parent="1">
          <mxGeometry x="440" y="2020" width="100" height="40" as="geometry" />
        </mxCell>
      </root>
    </mxGraphModel>
  </diagram>
</mxfile>
